<svg width="800" height="500" viewBox="0 0 800 500" xmlns="http://www.w3.org/2000/svg" fill="none" stroke="#29b473" stroke-width="4">
  <!-- Outer Border -->
  <rect x="2" y="2" width="796" height="496" />

  <!-- Halfway Line -->
  <line x1="400" y1="0" x2="400" y2="500" />

  <!-- Center Circle -->
  <circle cx="400" cy="250" r="73" />

  <!-- Center Spot -->
  <circle cx="400" cy="250" r="2" fill="#29b473" />

  <!-- Left Penalty Area -->
  <rect x="2" y="130" width="120" height="240" />

  <!-- Left Goal Area -->
  <rect x="2" y="190" width="40" height="120" />

  <!-- Left Penalty Spot -->
  <circle cx="90" cy="250" r="2" fill="#29b473" />

  <!-- Right Penalty Area -->
  <rect x="678" y="130" width="120" height="240" />

  <!-- Right Goal Area -->
  <rect x="758" y="190" width="40" height="120" />

  <!-- Right Penalty Spot -->
  <circle cx="710" cy="250" r="2" fill="#29b473" />

  <!-- Corner Arcs -->
  <path d="M2,2 A10,10 0 0,1 12,12" />
  <path d="M798,2 A10,10 0 0,0 788,12" />
  <path d="M2,498 A10,10 0 0,0 12,488" />
  <path d="M798,498 A10,10 0 0,1 788,488" />
</svg>
